HIERARCHY
ROOT Hips
{
	OFFSET 0.00000 0.00000 0.00000
	CHANNELS 6 Xposition Yposition Zposition Zrotation Yrotation Xrotation 
	JOINT LHipJoint
	{
		OFFSET 0 0 0
		CHANNELS 3 Zrotation Yrotation Xrotation
		JOINT LeftUpLeg
		{
			OFFSET 1.49846 -1.74315 1.08250
			CHANNELS 3 Zrotation Yrotation Xrotation
			JOINT LeftLeg
			{
				OFFSET 2.40966 -6.62050 0.00000
				CHANNELS 3 Zrotation Yrotation Xrotation
				JOINT LeftFoot
				{
					OFFSET 2.68066 -7.36505 0.00000
					CHANNELS 3 Zrotation Yrotation Xrotation
					JOINT LeftToeBase
					{
						OFFSET 0.14291 -0.39265 2.35870
						CHANNELS 3 Zrotation Yrotation Xrotation
						End Site
						{
							OFFSET 0.00000 -0.00000 1.20470
						}
					}
				}
			}
		}
	}
	JOINT RHipJoint
	{
		OFFSET 0 0 0
		CHANNELS 3 Zrotation Yrotation Xrotation
		JOINT RightUpLeg
		{
			OFFSET -1.46318 -1.74316 1.08250
			CHANNELS 3 Zrotation Yrotation Xrotation
			JOINT RightLeg
			{
				OFFSET -2.39759 -6.58734 0.00000
				CHANNELS 3 Zrotation Yrotation Xrotation
				JOINT RightFoot
				{
					OFFSET -2.63570 -7.24154 0.00000
					CHANNELS 3 Zrotation Yrotation Xrotation
					JOINT RightToeBase
					{
						OFFSET -0.17578 -0.48294 2.47180
						CHANNELS 3 Zrotation Yrotation Xrotation
						End Site
						{
							OFFSET -0.00000 -0.00000 1.26600
						}
					}
				}
			}
		}
	}
	JOINT LowerBack
	{
		OFFSET 0 0 0
		CHANNELS 3 Zrotation Yrotation Xrotation
		JOINT Spine
		{
			OFFSET 0.00843 2.19877 -0.20423
			CHANNELS 3 Zrotation Yrotation Xrotation
			JOINT Spine1
			{
				OFFSET -0.03080 2.21436 -0.05138
				CHANNELS 3 Zrotation Yrotation Xrotation
				JOINT Neck
				{
					OFFSET 0 0 0
					CHANNELS 3 Zrotation Yrotation Xrotation
					JOINT Neck1
					{
						OFFSET -0.04063 1.58841 0.30440
						CHANNELS 3 Zrotation Yrotation Xrotation
						JOINT Head
						{
							OFFSET 0.09277 1.59484 -0.39337
							CHANNELS 3 Zrotation Yrotation Xrotation
							End Site
							{
								OFFSET 0.03488 1.66530 -0.17040
							}
						}
					}
				}
				JOINT LeftShoulder
				{
					OFFSET 0 0 0
					CHANNELS 3 Zrotation Yrotation Xrotation
					JOINT LeftArm
					{
						OFFSET 3.03849 1.31522 0.02556
						CHANNELS 3 Zrotation Yrotation Xrotation
						JOINT LeftForeArm
						{
							OFFSET 5.25537 -0.00000 0.00000
							CHANNELS 3 Zrotation Yrotation Xrotation
							JOINT LeftHand
							{
								OFFSET 3.38855 -0.00000 -0.00000
								CHANNELS 3 Zrotation Yrotation Xrotation
								JOINT LeftFingerBase
								{
									OFFSET 0 0 0
									CHANNELS 3 Zrotation Yrotation Xrotation
									JOINT LeftHandIndex1
									{
										OFFSET 0.61452 -0.00000 0.00000
										CHANNELS 3 Zrotation Yrotation Xrotation
										End Site
										{
											OFFSET 0.49544 -0.00000 0.00000
										}
									}
								}
								JOINT LThumb
								{
									OFFSET 0 0 0
									CHANNELS 3 Zrotation Yrotation Xrotation
									End Site
									{
										OFFSET 0.50300 -0.00000 0.50300
									}
								}
							}
						}
					}
				}
				JOINT RightShoulder
				{
					OFFSET 0 0 0
					CHANNELS 3 Zrotation Yrotation Xrotation
					JOINT RightArm
					{
						OFFSET -3.06926 1.12091 -0.13185
						CHANNELS 3 Zrotation Yrotation Xrotation
						JOINT RightForeArm
						{
							OFFSET -5.38183 -0.00000 0.00000
							CHANNELS 3 Zrotation Yrotation Xrotation
							JOINT RightHand
							{
								OFFSET -3.16988 -0.00000 0.00000
								CHANNELS 3 Zrotation Yrotation Xrotation
								JOINT RightFingerBase
								{
									OFFSET 0 0 0
									CHANNELS 3 Zrotation Yrotation Xrotation
									JOINT RightHandIndex1
									{
										OFFSET -0.63768 -0.00000 0.00000
										CHANNELS 3 Zrotation Yrotation Xrotation
										End Site
										{
											OFFSET -0.51411 -0.00000 0.00000
										}
									}
								}
								JOINT RThumb
								{
									OFFSET 0 0 0
									CHANNELS 3 Zrotation Yrotation Xrotation
									End Site
									{
										OFFSET -0.52196 -0.00000 0.52196
									}
								}
							}
						}
					}
				}
			}
		}
	}
}
MOTION
Frames: 11
Frame Time: .0083333
5.5762 11.5702 20.8954 1.0246 -5.6132 82.2653 0.0000 0.0000 0.0000 -19.8380 -18.0090 -14.3759 3.9399 12.0800 36.0156 -0.1979 9.7190 -9.6529 0.0016 0.2607 0.7162 0.0000 0.0000 0.0000 22.9156 10.5466 -10.1810 -3.4861 -11.4431 33.7894 -0.1775 -7.8214 -14.2921 -0.0703 1.7103 -4.7056 6.2116 -0.4348 9.4327 -9.6479 -0.6727 -4.1774 -14.4148 -1.1968 -10.1748 -14.3256 -11.6755 -9.3084 14.9592 -14.9477 2.4119 5.6635 -7.1088 4.4719 0.0000 -0.0000 0.0000 64.8828 -24.3053 -38.6962 33.6961 -43.8583 -13.9021 -0.0000 0.0000 -10.7461 -11.4969 14.5403 -2.9233 -7.1250 0.0000 -0.0000 -34.0653 41.8049 3.0929 0.0000 -0.0000 0.0000 33.2734 23.6538 64.1045 -72.6325 58.8290 -45.0184 0.0000 -0.0000 -48.2587 10.6500 -1.2049 -0.2266 7.1250 -0.0000 -0.0000 28.5515 -30.2118 11.6575
5.5921 11.5764 20.9016 0.8548 -5.7472 82.3403 0.0000 0.0000 0.0000 -19.7951 -18.3949 -14.1588 3.9081 12.0371 35.8632 -0.2177 10.3903 -10.5540 0.0069 0.5363 1.4737 0.0000 0.0000 0.0000 22.8146 9.9998 -10.2870 -3.4960 -11.4576 33.8393 -0.1340 -7.4245 -13.1484 -0.0805 1.8296 -5.0351 5.7132 -0.7512 9.4188 -9.4496 -1.1669 -4.2731 -13.7681 -1.4143 -10.3954 -13.6136 -11.1859 -10.1267 14.1241 -14.2374 2.7560 5.3457 -6.7412 4.4833 0.0000 0.0000 0.0000 65.2018 -25.5798 -40.1227 31.7510 -42.3478 -12.5728 -0.0000 0.0000 -9.1377 -8.2836 15.2796 -2.1972 -7.1250 0.0000 -0.0000 -31.8639 42.7973 1.9502 0.0000 0.0000 0.0000 33.4522 22.9252 63.7160 -75.2807 59.1653 -47.2885 0.0000 -0.0000 -47.9886 11.2825 -1.1721 -0.2338 7.1250 -0.0000 -0.0000 28.9815 -30.1424 11.9391
5.6083 11.5832 20.9090 0.6639 -5.8962 82.4257 0.0000 0.0000 0.0000 -19.7747 -18.7998 -13.9319 3.8727 11.9890 35.6932 -0.2315 11.0316 -11.5471 0.0158 0.8125 2.2329 0.0000 0.0000 0.0000 22.7036 9.4700 -10.3943 -3.5098 -11.4778 33.9089 -0.0978 -7.0149 -12.0326 -0.0899 1.9335 -5.3220 5.1996 -1.0793 9.4160 -9.2470 -1.6790 -4.3702 -13.1053 -1.6361 -10.6155 -13.1069 -10.6733 -10.8896 13.6418 -13.5070 3.0117 5.1733 -6.3595 4.5113 0.0000 -0.0000 0.0000 65.3771 -26.7003 -41.4738 30.1006 -40.9794 -11.4755 -0.0000 0.0000 -7.6636 -4.9251 15.9958 -1.3603 -7.1250 0.0000 -0.0000 -29.4439 43.8004 0.9608 0.0000 -0.0000 0.0000 33.5428 22.1964 63.2611 -78.0388 59.4524 -49.6603 0.0000 -0.0000 -47.7298 11.8274 -1.0639 -0.2228 7.1250 -0.0000 -0.0000 29.3264 -30.0101 12.2319
5.6252 11.5905 20.9178 0.4651 -6.0462 82.5313 0.0000 0.0000 0.0000 -19.7651 -19.2545 -13.6982 3.8342 11.9364 35.5073 -0.2385 11.6535 -12.6278 0.0292 1.1031 3.0326 0.0000 0.0000 0.0000 22.5913 8.9627 -10.5216 -3.5278 -11.5041 33.9993 -0.0684 -6.5937 -10.9512 -0.0993 2.0324 -5.5952 4.6954 -1.4286 9.4152 -9.0388 -2.2187 -4.4688 -12.4379 -1.8687 -10.8324 -12.6187 -10.1294 -11.6129 13.2594 -12.7448 3.1854 5.0410 -5.9629 4.5203 -0.0000 0.0000 0.0000 65.4193 -27.6448 -42.6297 28.7039 -39.7562 -10.5708 -0.0000 0.0000 -6.3778 -1.4052 16.6873 -0.4036 -7.1250 0.0000 -0.0000 -26.7894 44.8224 0.1268 -0.0000 0.0000 0.0000 33.5546 21.4765 62.7423 -80.9119 59.6856 -52.1378 0.0000 -0.0000 -47.4599 12.3123 -0.9064 -0.1978 7.1250 -0.0000 -0.0000 29.6131 -29.8368 12.5324
5.6429 11.5983 20.9278 0.2631 -6.2026 82.6594 0.0000 0.0000 0.0000 -19.7789 -19.8042 -13.4399 3.7932 11.8800 35.3089 -0.2362 12.2662 -13.8320 0.0510 1.4573 4.0081 0.0000 0.0000 0.0000 22.4760 8.5163 -10.6634 -3.5500 -11.5362 34.1104 -0.0444 -6.1840 -9.9200 -0.1071 2.1101 -5.8099 4.1949 -1.7979 9.4162 -8.8212 -2.7846 -4.5714 -11.7580 -2.1108 -11.0466 -12.0653 -9.5450 -12.3057 12.8215 -11.9374 3.2992 4.8881 -5.5488 4.4991 0.0000 0.0000 0.0000 65.3387 -28.4386 -43.5367 27.5060 -38.6575 -9.8135 -0.0000 0.0000 -5.3064 2.2537 17.3464 0.6723 -7.1250 0.0000 -0.0000 -23.9123 45.8607 -0.5389 0.0000 0.0000 0.0000 33.4867 20.7595 62.1627 -83.8940 59.8586 -54.7145 0.0000 -0.0000 -47.1650 12.7364 -0.7082 -0.1601 7.1250 -0.0000 -0.0000 29.8448 -29.6316 12.8339
5.6608 11.6063 20.9390 0.0586 -6.3588 82.7947 0.0000 0.0000 0.0000 -19.8091 -20.4141 -13.1552 3.7515 11.8222 35.1059 -0.2229 12.8487 -15.1109 0.0821 1.8478 5.0851 0.0000 0.0000 0.0000 22.3701 8.1475 -10.7969 -3.5751 -11.5725 34.2359 -0.0248 -5.7993 -8.9492 -0.1126 2.1634 -5.9573 3.7031 -2.1829 9.4294 -8.5934 -3.3694 -4.6661 -11.0684 -2.3581 -11.2484 -11.4964 -8.9557 -12.9755 12.3717 -11.1300 3.3569 4.7292 -5.1382 4.4631 0.0000 -0.0000 0.0000 65.1548 -29.0846 -44.1950 26.4670 -37.6662 -9.1716 -0.0000 0.0000 -4.4446 5.9449 17.9194 1.8351 -7.1250 0.0000 -0.0000 -20.8817 46.8576 -0.9996 0.0000 -0.0000 0.0000 33.3435 20.0412 61.5118 -86.9561 59.9650 -57.3643 0.0000 -0.0000 -46.7902 13.0876 -0.4602 -0.1070 7.1250 -0.0000 -0.0000 30.0110 -29.3872 13.1360
5.6789 11.6144 20.9509 -0.1507 -6.5047 82.9443 0.0000 0.0000 0.0000 -19.8467 -21.1225 -12.8347 3.7105 11.7648 34.9050 -0.1916 13.3872 -16.5116 0.1304 2.3276 6.4119 0.0000 0.0000 0.0000 22.2872 7.8876 -10.9216 -3.6020 -11.6111 34.3698 -0.0085 -5.4592 -8.0440 -0.1155 2.1910 -6.0339 3.2210 -2.5741 9.4427 -8.3480 -3.9586 -4.7530 -10.3645 -2.6028 -11.4257 -10.9281 -8.3721 -13.6337 11.9254 -10.3368 3.3850 4.5695 -4.7366 4.4261 0.0000 -0.0000 0.0000 64.8902 -29.6004 -44.6168 25.5547 -36.7656 -8.6197 -0.0000 0.0000 -3.7829 9.5603 18.3908 3.0417 -7.1250 0.0000 -0.0000 -17.7944 47.7858 -1.2608 0.0000 -0.0000 0.0000 33.1222 19.3004 60.7793 -90.0810 60.0000 -60.0701 0.0000 -0.0000 -46.3537 13.3389 -0.1900 -0.0450 7.1250 -0.0000 -0.0000 30.1022 -29.1289 13.4093
5.6970 11.6227 20.9635 -0.3672 -6.6442 83.1113 0.0000 0.0000 0.0000 -19.8918 -21.9050 -12.4924 3.6719 11.7105 34.7155 -0.1380 13.8564 -18.0038 0.1997 2.8774 7.9376 0.0000 0.0000 0.0000 22.2236 7.7551 -11.0393 -3.6300 -11.6511 34.5085 0.0058 -5.1791 -7.2004 -0.1139 2.1763 -5.9931 2.7427 -2.9607 9.4493 -8.0885 -4.5382 -4.8323 -9.6507 -2.8380 -11.5712 -10.3946 -7.8066 -14.2803 11.5483 -9.5767 3.4148 4.4325 -4.3499 4.4050 0.0000 0.0000 0.0000 64.5687 -30.0036 -44.8478 24.7516 -35.9490 -8.1436 -0.0000 0.0000 -3.2883 12.9373 18.7627 4.2258 -7.1250 0.0000 -0.0000 -14.8116 48.6202 -1.3499 0.0000 0.0000 0.0000 32.8417 18.5133 59.9641 -93.2229 59.9607 -62.7907 0.0000 -0.0000 -45.8558 13.4719 0.0995 0.0238 7.1250 -0.0000 -0.0000 30.1086 -28.8624 13.6406
5.7150 11.6309 20.9771 -0.5834 -6.7736 83.2893 0.0000 0.0000 0.0000 -19.9374 -22.7062 -12.1448 3.6363 11.6601 34.5398 -0.0635 14.2406 -19.5043 0.2817 3.4138 9.4331 0.0000 0.0000 0.0000 22.1840 7.7639 -11.1413 -3.6585 -11.6916 34.6496 0.0186 -4.9768 -6.4402 -0.1096 2.1351 -5.8790 2.2755 -3.3337 9.4481 -7.8229 -5.0954 -4.9052 -8.9447 -3.0595 -11.6848 -9.9214 -7.2680 -14.8900 11.2717 -8.8617 3.4583 4.3322 -3.9832 4.4019 0.0000 0.0000 0.0000 64.2279 -30.3313 -44.9506 24.0409 -35.2074 -7.7301 -0.0000 0.0000 -2.9530 15.9236 19.0303 5.3148 -7.1250 0.0000 -0.0000 -12.0932 49.3266 -1.3074 0.0000 0.0000 0.0000 32.5339 17.6365 59.0668 -96.3514 59.8470 -65.4977 0.0000 -0.0000 -45.3026 13.4788 0.3985 0.0955 7.1250 -0.0000 -0.0000 30.0286 -28.5960 13.8192
5.7340 11.6389 20.9900 -0.7631 -6.8974 83.4202 0.0000 0.0000 0.0000 -20.0266 -23.5355 -11.7190 3.6042 11.6142 34.3805 0.0337 14.5327 -21.0035 0.3794 3.9560 10.9530 0.0000 0.0000 0.0000 22.1560 7.8366 -11.1972 -3.6878 -11.7330 34.7938 0.0275 -4.8056 -5.7929 -0.1048 2.0876 -5.7479 1.8267 -3.6990 9.4874 -7.5656 -5.6386 -4.9552 -8.2643 -3.2731 -11.7827 -9.5033 -6.7590 -15.4365 11.0889 -8.1955 3.5025 4.2664 -3.6391 4.4061 -0.0000 0.0000 0.0000 63.8867 -30.6004 -44.9583 23.4160 -34.5405 -7.3728 -0.0000 0.0000 -2.7702 18.4230 19.2177 6.2571 -7.1250 0.0000 -0.0000 -9.7625 49.9014 -1.1896 -0.0000 0.0000 0.0000 32.2258 16.6336 58.1045 -99.4393 59.6606 -68.1654 0.0000 -0.0000 -44.7085 13.3124 0.7356 0.1740 7.1250 -0.0000 -0.0000 29.8235 -28.3067 13.9383
5.7535 11.6463 21.0037 -0.9155 -7.0252 83.5492 0.0000 0.0000 0.0000 -20.1345 -24.3001 -11.2993 3.5736 11.5703 34.2283 0.1425 14.7292 -22.3757 0.4750 4.4202 12.2618 0.0000 0.0000 0.0000 22.1237 7.9779 -11.2602 -3.7176 -11.7749 34.9402 0.0331 -4.6534 -5.2642 -0.1018 2.0577 -5.6651 1.4012 -4.0442 9.5094 -7.3309 -6.1521 -4.9979 -7.6339 -3.4736 -11.8490 -9.1371 -6.2824 -15.8893 10.9883 -7.5808 3.5284 4.2316 -3.3201 4.4047 -0.0000 -0.0000 0.0000 63.5756 -30.8369 -44.9018 22.8637 -33.9394 -7.0621 -0.0000 0.0000 -2.7475 20.3803 19.3393 7.0138 -7.1250 0.0000 -0.0000 -7.9017 50.3401 -1.0457 -0.0000 -0.0000 0.0000 31.9472 15.4639 57.0940 -102.4875 59.4025 -70.7928 0.0000 -0.0000 -44.0612 12.9537 1.1384 0.2618 7.1250 -0.0000 -0.0000 29.4744 -27.9714 14.0015
